# Blender v2.80 (sub 45) OBJ File: 'segments.blend'
# www.blender.org
o step_Cube.008_Cube.008
v 0.892068 0.450542 -1.136154
v 0.895324 0.841009 -1.148129
v 0.257361 0.847153 -1.182572
v 0.270543 0.450542 -1.136154
v 0.270543 0.842757 1.019079
v 0.270543 0.454304 1.019757
v 0.904762 0.850766 1.063098
v 0.892068 0.454304 1.019757
vt 0.625000 0.000000
vt 0.375000 0.000000
vt 0.375000 0.250000
vt 0.375000 0.500000
vt 0.625000 0.500000
vt 0.375000 0.750000
vt 0.375000 1.000000
vt 0.625000 1.000000
vt 0.125000 0.500000
vt 0.125000 0.750000
vt 0.625000 0.750000
vt 0.875000 0.750000
vt 0.625000 0.250000
vt 0.875000 0.500000
vn 0.0191 -0.0611 -0.9979
vn 0.0000 -0.0307 -0.9995
vn 0.0342 -0.0853 -0.9958
vn -0.9996 -0.0291 0.0053
vn -1.0000 0.0000 0.0000
vn -1.0000 -0.0038 0.0007
vn -0.0245 -0.0375 0.9990
vn 0.0000 0.0017 1.0000
vn -0.0441 -0.0688 0.9967
vn 0.9996 -0.0291 -0.0037
vn 1.0000 -0.0083 0.0000
vn 0.9999 -0.0111 -0.0005
vn 0.0000 -1.0000 0.0017
vn -0.0085 1.0000 -0.0033
vn -0.0123 0.9999 -0.0044
vn 0.0057 1.0000 0.0008
vn 0.0525 -0.1144 -0.9921
vn -0.9995 -0.0325 0.0059
vn -0.0675 -0.1063 0.9920
vn 0.9995 -0.0316 -0.0041
vn 0.0095 1.0000 0.0019
s 1
f 2/1/1 1/2/2 4/3/3
f 4/3/4 6/4/5 5/5/6
f 5/5/7 6/4/8 8/6/9
f 8/6/10 1/7/11 2/8/12
f 6/4/13 4/9/13 1/10/13
f 5/5/14 7/11/15 2/12/16
f 2/1/1 4/3/3 3/13/17
f 4/3/4 5/5/6 3/13/18
f 5/5/7 8/6/9 7/11/19
f 8/6/10 2/8/12 7/11/20
f 6/4/13 1/10/13 8/6/13
f 5/5/14 2/12/16 3/14/21
o box_Cube
v -1.031634 0.486939 1.087152
v -1.031634 3.446939 1.087152
v -1.031634 0.486939 -1.132848
v -1.031634 3.446939 -1.132848
v 0.968366 0.486939 1.087152
v 0.968366 3.446939 1.087152
v 0.968366 0.486939 -1.132848
v 0.968366 3.446939 -1.132848
vt 0.625000 0.250000
vt 0.375000 0.500000
vt 0.375000 0.250000
vt 0.625000 0.750000
vt 0.375000 1.000000
vt 0.375000 0.750000
vt 0.125000 0.750000
vt 0.125000 0.500000
vt 0.875000 0.500000
vt 0.625000 0.500000
vt 0.625000 1.000000
vt 0.875000 0.750000
vn 0.0000 0.0000 -1.0000
vn 0.0000 0.0000 1.0000
vn 0.0000 -1.0000 0.0000
vn 0.0000 1.0000 0.0000
s off
f 12/15/22 15/16/22 11/17/22
f 14/18/23 9/19/23 13/20/23
f 15/16/24 9/21/24 11/22/24
f 12/23/25 14/18/25 16/24/25
f 12/15/22 16/24/22 15/16/22
f 14/18/23 10/25/23 9/19/23
f 15/16/24 13/20/24 9/21/24
f 12/23/25 10/26/25 14/18/25
o cover_Cube.008_Cube.000
v 1.023298 3.232337 -1.092456
v 1.026554 3.622804 -1.104431
v 0.388591 3.628948 -1.138874
v 0.401773 3.232337 -1.092456
v 0.401773 3.624552 1.062777
v 0.401773 3.236099 1.063455
v 1.035992 3.632561 1.106796
v 1.023298 3.236099 1.063455
vt 0.625000 0.000000
vt 0.375000 0.000000
vt 0.375000 0.250000
vt 0.375000 0.500000
vt 0.625000 0.500000
vt 0.375000 0.750000
vt 0.375000 1.000000
vt 0.625000 1.000000
vt 0.125000 0.500000
vt 0.125000 0.750000
vt 0.625000 0.750000
vt 0.875000 0.750000
vt 0.625000 0.250000
vt 0.875000 0.500000
vn 0.0191 -0.0611 -0.9979
vn 0.0000 -0.0307 -0.9995
vn 0.0342 -0.0853 -0.9958
vn -0.9996 -0.0291 0.0053
vn -1.0000 -0.0000 0.0000
vn -1.0000 -0.0038 0.0007
vn -0.0245 -0.0375 0.9990
vn 0.0000 0.0017 1.0000
vn -0.0441 -0.0688 0.9967
vn 0.9996 -0.0291 -0.0037
vn 1.0000 -0.0083 0.0000
vn 0.9999 -0.0111 -0.0005
vn 0.0000 -1.0000 0.0017
vn -0.0085 1.0000 -0.0033
vn -0.0123 0.9999 -0.0044
vn 0.0057 1.0000 0.0008
vn 0.0525 -0.1144 -0.9921
vn -0.9995 -0.0325 0.0059
vn -0.0675 -0.1063 0.9920
vn 0.9995 -0.0316 -0.0041
vn 0.0095 1.0000 0.0019
s 1
f 18/27/26 17/28/27 20/29/28
f 20/29/29 22/30/30 21/31/31
f 21/31/32 22/30/33 24/32/34
f 24/32/35 17/33/36 18/34/37
f 22/30/38 20/35/38 17/36/38
f 21/31/39 23/37/40 18/38/41
f 18/27/26 20/29/28 19/39/42
f 20/29/29 21/31/31 19/39/43
f 21/31/32 24/32/34 23/37/44
f 24/32/35 18/34/37 23/37/45
f 22/30/38 17/36/38 24/32/38
f 21/31/39 18/38/41 19/40/46
